<svg id="visual" viewBox="0 0 960 540" width="960" height="540" xmlns="http://www.w3.org/2000/svg" xmlns:xlink="http://www.w3.org/1999/xlink" version="1.1"><rect x="0" y="0" width="960" height="540" fill="#2C3B53"></rect><path d="M0 394L22.8 381.8C45.7 369.7 91.3 345.3 137 333.8C182.7 322.3 228.3 323.7 274 327C319.7 330.3 365.3 335.7 411.2 351.3C457 367 503 393 548.8 393C594.7 393 640.3 367 686 366.8C731.7 366.7 777.3 392.3 823 392.7C868.7 393 914.3 368 937.2 355.5L960 343L960 541L937.2 541C914.3 541 868.7 541 823 541C777.3 541 731.7 541 686 541C640.3 541 594.7 541 548.8 541C503 541 457 541 411.2 541C365.3 541 319.7 541 274 541C228.3 541 182.7 541 137 541C91.3 541 45.7 541 22.8 541L0 541Z" fill="#7a8f8d"></path><path d="M0 445L22.8 448C45.7 451 91.3 457 137 449C182.7 441 228.3 419 274 405.7C319.7 392.3 365.3 387.7 411.2 388.3C457 389 503 395 548.8 401.8C594.7 408.7 640.3 416.3 686 416C731.7 415.7 777.3 407.3 823 405C868.7 402.7 914.3 406.3 937.2 408.2L960 410L960 541L937.2 541C914.3 541 868.7 541 823 541C777.3 541 731.7 541 686 541C640.3 541 594.7 541 548.8 541C503 541 457 541 411.2 541C365.3 541 319.7 541 274 541C228.3 541 182.7 541 137 541C91.3 541 45.7 541 22.8 541L0 541Z" fill="#a9bfbd"></path><path d="M0 452L22.8 450.3C45.7 448.7 91.3 445.3 137 448.5C182.7 451.7 228.3 461.3 274 469.2C319.7 477 365.3 483 411.2 484.8C457 486.7 503 484.3 548.8 478.7C594.7 473 640.3 464 686 465.5C731.7 467 777.3 479 823 479.2C868.7 479.3 914.3 467.7 937.2 461.8L960 456L960 541L937.2 541C914.3 541 868.7 541 823 541C777.3 541 731.7 541 686 541C640.3 541 594.7 541 548.8 541C503 541 457 541 411.2 541C365.3 541 319.7 541 274 541C228.3 541 182.7 541 137 541C91.3 541 45.7 541 22.8 541L0 541Z" fill="#dbf2ef"></path></svg>